%TF.GenerationSoftware,KiCad,Pcbnew,6.0.2+dfsg-1*%
%TF.CreationDate,2025-12-02T17:30:05+07:00*%
%TF.ProjectId,uno_shield,756e6f5f-7368-4696-956c-642e6b696361,rev?*%
%TF.SameCoordinates,Original*%
%TF.FileFunction,Copper,L2,Bot*%
%TF.FilePolarity,Positive*%
%FSLAX46Y46*%
G04 Gerber Fmt 4.6, Leading zero omitted, Abs format (unit mm)*
G04 Created by KiCad (PCBNEW 6.0.2+dfsg-1) date 2025-12-02 17:30:05*
%MOMM*%
%LPD*%
G01*
G04 APERTURE LIST*
%TA.AperFunction,ComponentPad*%
%ADD10R,1.600000X1.600000*%
%TD*%
%TA.AperFunction,ComponentPad*%
%ADD11O,1.600000X1.600000*%
%TD*%
%TA.AperFunction,ComponentPad*%
%ADD12O,1.727200X2.032000*%
%TD*%
%TA.AperFunction,ComponentPad*%
%ADD13C,4.064000*%
%TD*%
G04 APERTURE END LIST*
D10*
%TO.P,U1,1,~{RESET}/PC6*%
%TO.N,unconnected-(U1-Pad1)*%
X138938000Y-113665000D03*
D11*
%TO.P,U1,2,PD0*%
%TO.N,unconnected-(U1-Pad2)*%
X141478000Y-113665000D03*
%TO.P,U1,3,PD1*%
%TO.N,unconnected-(U1-Pad3)*%
X144018000Y-113665000D03*
%TO.P,U1,4,PD2*%
%TO.N,unconnected-(U1-Pad4)*%
X146558000Y-113665000D03*
%TO.P,U1,5,PD3*%
%TO.N,unconnected-(U1-Pad5)*%
X149098000Y-113665000D03*
%TO.P,U1,6,PD4*%
%TO.N,unconnected-(U1-Pad6)*%
X151638000Y-113665000D03*
%TO.P,U1,7,VCC*%
%TO.N,unconnected-(U1-Pad7)*%
X154178000Y-113665000D03*
%TO.P,U1,8,GND*%
%TO.N,Net-(U1-Pad22)*%
X156718000Y-113665000D03*
%TO.P,U1,9,XTAL1/PB6*%
%TO.N,unconnected-(U1-Pad9)*%
X159258000Y-113665000D03*
%TO.P,U1,10,XTAL2/PB7*%
%TO.N,unconnected-(U1-Pad10)*%
X161798000Y-113665000D03*
%TO.P,U1,11,PD5*%
%TO.N,unconnected-(U1-Pad11)*%
X164338000Y-113665000D03*
%TO.P,U1,12,PD6*%
%TO.N,unconnected-(U1-Pad12)*%
X166878000Y-113665000D03*
%TO.P,U1,13,PD7*%
%TO.N,unconnected-(U1-Pad13)*%
X169418000Y-113665000D03*
%TO.P,U1,14,PB0*%
%TO.N,unconnected-(U1-Pad14)*%
X171958000Y-113665000D03*
%TO.P,U1,15,PB1*%
%TO.N,unconnected-(U1-Pad15)*%
X171958000Y-106045000D03*
%TO.P,U1,16,PB2*%
%TO.N,unconnected-(U1-Pad16)*%
X169418000Y-106045000D03*
%TO.P,U1,17,PB3*%
%TO.N,unconnected-(U1-Pad17)*%
X166878000Y-106045000D03*
%TO.P,U1,18,PB4*%
%TO.N,unconnected-(U1-Pad18)*%
X164338000Y-106045000D03*
%TO.P,U1,19,PB5*%
%TO.N,unconnected-(U1-Pad19)*%
X161798000Y-106045000D03*
%TO.P,U1,20,AVCC*%
%TO.N,unconnected-(U1-Pad20)*%
X159258000Y-106045000D03*
%TO.P,U1,21,AREF*%
%TO.N,unconnected-(U1-Pad21)*%
X156718000Y-106045000D03*
%TO.P,U1,22,GND*%
%TO.N,Net-(U1-Pad22)*%
X154178000Y-106045000D03*
%TO.P,U1,23,PC0*%
%TO.N,unconnected-(U1-Pad23)*%
X151638000Y-106045000D03*
%TO.P,U1,24,PC1*%
%TO.N,unconnected-(U1-Pad24)*%
X149098000Y-106045000D03*
%TO.P,U1,25,PC2*%
%TO.N,unconnected-(U1-Pad25)*%
X146558000Y-106045000D03*
%TO.P,U1,26,PC3*%
%TO.N,unconnected-(U1-Pad26)*%
X144018000Y-106045000D03*
%TO.P,U1,27,PC4*%
%TO.N,unconnected-(U1-Pad27)*%
X141478000Y-106045000D03*
%TO.P,U1,28,PC5*%
%TO.N,unconnected-(U1-Pad28)*%
X138938000Y-106045000D03*
%TD*%
D12*
%TO.P,P1,1,Pin_1*%
%TO.N,unconnected-(P1-Pad1)*%
X138938000Y-123825000D03*
%TO.P,P1,2,Pin_2*%
%TO.N,/IOREF*%
X141478000Y-123825000D03*
%TO.P,P1,3,Pin_3*%
%TO.N,/Reset*%
X144018000Y-123825000D03*
%TO.P,P1,4,Pin_4*%
%TO.N,+3V3*%
X146558000Y-123825000D03*
%TO.P,P1,5,Pin_5*%
%TO.N,+5V*%
X149098000Y-123825000D03*
%TO.P,P1,6,Pin_6*%
%TO.N,GND*%
X151638000Y-123825000D03*
%TO.P,P1,7,Pin_7*%
X154178000Y-123825000D03*
%TO.P,P1,8,Pin_8*%
%TO.N,/Vin*%
X156718000Y-123825000D03*
%TD*%
%TO.P,P2,1,Pin_1*%
%TO.N,/A0*%
X161798000Y-123825000D03*
%TO.P,P2,2,Pin_2*%
%TO.N,/A1*%
X164338000Y-123825000D03*
%TO.P,P2,3,Pin_3*%
%TO.N,/A2*%
X166878000Y-123825000D03*
%TO.P,P2,4,Pin_4*%
%TO.N,/A3*%
X169418000Y-123825000D03*
%TO.P,P2,5,Pin_5*%
%TO.N,/A4(SDA)*%
X171958000Y-123825000D03*
%TO.P,P2,6,Pin_6*%
%TO.N,/A5(SCL)*%
X174498000Y-123825000D03*
%TD*%
%TO.P,P3,1,Pin_1*%
%TO.N,/A5(SCL)*%
X129794000Y-75565000D03*
%TO.P,P3,2,Pin_2*%
%TO.N,/A4(SDA)*%
X132334000Y-75565000D03*
%TO.P,P3,3,Pin_3*%
%TO.N,/AREF*%
X134874000Y-75565000D03*
%TO.P,P3,4,Pin_4*%
%TO.N,GND*%
X137414000Y-75565000D03*
%TO.P,P3,5,Pin_5*%
%TO.N,/13(SCK)*%
X139954000Y-75565000D03*
%TO.P,P3,6,Pin_6*%
%TO.N,/12(MISO)*%
X142494000Y-75565000D03*
%TO.P,P3,7,Pin_7*%
%TO.N,/11(\u002A\u002A{slash}MOSI)*%
X145034000Y-75565000D03*
%TO.P,P3,8,Pin_8*%
%TO.N,/10(\u002A\u002A{slash}SS)*%
X147574000Y-75565000D03*
%TO.P,P3,9,Pin_9*%
%TO.N,/9(\u002A\u002A)*%
X150114000Y-75565000D03*
%TO.P,P3,10,Pin_10*%
%TO.N,/8*%
X152654000Y-75565000D03*
%TD*%
%TO.P,P4,1,Pin_1*%
%TO.N,/7*%
X156718000Y-75565000D03*
%TO.P,P4,2,Pin_2*%
%TO.N,/6(\u002A\u002A)*%
X159258000Y-75565000D03*
%TO.P,P4,3,Pin_3*%
%TO.N,/5(\u002A\u002A)*%
X161798000Y-75565000D03*
%TO.P,P4,4,Pin_4*%
%TO.N,/4*%
X164338000Y-75565000D03*
%TO.P,P4,5,Pin_5*%
%TO.N,/3(\u002A\u002A)*%
X166878000Y-75565000D03*
%TO.P,P4,6,Pin_6*%
%TO.N,/2*%
X169418000Y-75565000D03*
%TO.P,P4,7,Pin_7*%
%TO.N,/1(Tx)*%
X171958000Y-75565000D03*
%TO.P,P4,8,Pin_8*%
%TO.N,/0(Rx)*%
X174498000Y-75565000D03*
%TD*%
D13*
%TO.P,P5,1,Pin_1*%
%TO.N,unconnected-(P5-Pad1)*%
X124968000Y-123825000D03*
%TD*%
%TO.P,P6,1,Pin_1*%
%TO.N,unconnected-(P6-Pad1)*%
X177038000Y-118745000D03*
%TD*%
%TO.P,P7,1,Pin_1*%
%TO.N,unconnected-(P7-Pad1)*%
X126238000Y-75565000D03*
%TD*%
%TO.P,P8,1,Pin_1*%
%TO.N,unconnected-(P8-Pad1)*%
X177038000Y-90805000D03*
%TD*%
M02*
