M48
; DRILL file {KiCad 6.0.2+dfsg-1} date Tue 02 Dec 2025 05:30:00 PM +07
; FORMAT={-:-/ absolute / inch / decimal}
; #@! TF.CreationDate,2025-12-02T17:30:00+07:00
; #@! TF.GenerationSoftware,Kicad,Pcbnew,6.0.2+dfsg-1
; #@! TF.FileFunction,Plated,1,2,PTH
FMAT,2
INCH
; #@! TA.AperFunction,Plated,PTH,ComponentDrill
T1C0.0315
; #@! TA.AperFunction,Plated,PTH,ComponentDrill
T2C0.0400
; #@! TA.AperFunction,Plated,PTH,ComponentDrill
T3C0.1200
%
G90
G05
T1
X5.47Y-4.175
X5.47Y-4.475
X5.57Y-4.175
X5.57Y-4.475
X5.67Y-4.175
X5.67Y-4.475
X5.77Y-4.175
X5.77Y-4.475
X5.87Y-4.175
X5.87Y-4.475
X5.97Y-4.175
X5.97Y-4.475
X6.07Y-4.175
X6.07Y-4.475
X6.17Y-4.175
X6.17Y-4.475
X6.27Y-4.175
X6.27Y-4.475
X6.37Y-4.175
X6.37Y-4.475
X6.47Y-4.175
X6.47Y-4.475
X6.57Y-4.175
X6.57Y-4.475
X6.67Y-4.175
X6.67Y-4.475
X6.77Y-4.175
X6.77Y-4.475
T2
X5.11Y-2.975
X5.21Y-2.975
X5.31Y-2.975
X5.41Y-2.975
X5.47Y-4.875
X5.51Y-2.975
X5.57Y-4.875
X5.61Y-2.975
X5.67Y-4.875
X5.71Y-2.975
X5.77Y-4.875
X5.81Y-2.975
X5.87Y-4.875
X5.91Y-2.975
X5.97Y-4.875
X6.01Y-2.975
X6.07Y-4.875
X6.17Y-2.975
X6.17Y-4.875
X6.27Y-2.975
X6.37Y-2.975
X6.37Y-4.875
X6.47Y-2.975
X6.47Y-4.875
X6.57Y-2.975
X6.57Y-4.875
X6.67Y-2.975
X6.67Y-4.875
X6.77Y-2.975
X6.77Y-4.875
X6.87Y-2.975
X6.87Y-4.875
T3
X4.92Y-4.875
X4.97Y-2.975
X6.97Y-3.575
X6.97Y-4.675
T0
M30
